<?xml version="1.0" encoding="UTF-8" standalone="no"?>
<svg
   viewBox="0 0 682.5 186.65916"
   version="1.1"
   id="svg4"
   sodipodi:docname="dsw_logo.svg"
   width="682.5"
   height="186.65916"
   inkscape:version="1.3.1 (9b9bdc1480, 2023-11-25, custom)"
   xmlns:inkscape="http://www.inkscape.org/namespaces/inkscape"
   xmlns:sodipodi="http://sodipodi.sourceforge.net/DTD/sodipodi-0.dtd"
   xmlns="http://www.w3.org/2000/svg"
   xmlns:svg="http://www.w3.org/2000/svg">
  <defs
     id="defs4" />
  <sodipodi:namedview
     id="namedview4"
     pagecolor="#ffffff"
     bordercolor="#000000"
     borderopacity="0.25"
     inkscape:showpageshadow="2"
     inkscape:pageopacity="0.0"
     inkscape:pagecheckerboard="0"
     inkscape:deskcolor="#d1d1d1"
     inkscape:zoom="1.3466667"
     inkscape:cx="340.84158"
     inkscape:cy="92.450495"
     inkscape:window-width="1920"
     inkscape:window-height="959"
     inkscape:window-x="0"
     inkscape:window-y="0"
     inkscape:window-maximized="1"
     inkscape:current-layer="svg4" />
  <path
     d="m 183.61,139.03917 -16.8,-29.78 -30.12,-8.84 23.2,-3.399998 -21.7,-38.46 -21.81,-12 21,3.5 45.83,7 -68.46,-55.3000004 c -3.38,-3.28 -8.4,-1.79999999 -10.16,3 l -17.6,67.4400004 24.47,4.12 -27.1,6 -15.14,57.999998 45,6.38 -50.76,8.13 -63.46,31.83 c 0,0 41.71,-1.89 55.9,-3.87 53.74,-7.53 93.22,-8.29 147,-16.61 9.41,-1.46 45.88,-25.28 45.88,-25.28 z"
     style="fill:#f15a24"
     id="path1" />
  <path
     d="m 389.29,92.009172 q 0,32.439998 -18.39,49.689998 -18.39,17.25 -53.13,17.25 H 280.72 V 27.579172 h 41.08 q 32,0 49.77,17 17.77,17 17.72,47.43 z m -28.82,0.72 q 0,-42.31 -37.24,-42.32 h -14.77 v 85.539998 h 11.91 q 40.1,0 40.1,-43.219998 z"
     style="fill:#4d4948"
     id="path2" />
  <path
     d="m 489.27,122.46917 q 0,17.79 -12.75,28 -12.75,10.21 -35.49,10.24 -21,0 -37.06,-7.91 v -25.83 a 152.69,152.69 0 0 0 22.42,8.35 66,66 0 0 0 16.78,2.43 q 9.13,0 14,-3.51 4.87,-3.51 4.94,-10.42 a 11.54,11.54 0 0 0 -2.15,-6.87 24,24 0 0 0 -6.31,-5.8 q -4.15,-2.79 -17,-8.9 -12,-5.659998 -18,-10.869998 a 40.67,40.67 0 0 1 -9.54,-12.13 34.67,34.67 0 0 1 -3.58,-16.17 q 0,-17.43 11.77,-27.41 11.77,-9.98 32.54,-10 a 76.94,76.94 0 0 1 19.47,2.42 134.47,134.47 0 0 1 19.37,6.83 l -8.95,21.66 a 129.87,129.87 0 0 0 -17.32,-6 55.4,55.4 0 0 0 -13.47,-1.71 q -7.87,0 -12.08,3.69 a 12.15,12.15 0 0 0 -4.21,9.61 11.92,11.92 0 0 0 1.7,6.42 18.81,18.81 0 0 0 5.42,5.31 q 3.71,2.55 17.59,9.21 18.35,8.81 25.15,17.649998 6.8,8.84 6.76,21.71 z"
     style="fill:#4d4948"
     id="path3" />
  <path
     d="m 649.24,158.94917 h -31.6 L 599.92,89.949172 q -1,-3.68 -3.36,-15.23 -2.36,-11.55 -2.73,-15.5 -0.54,4.86 -2.68,15.59 -2.14,10.73 -3.32,15.32 L 570.2,158.95917 H 538.69 L 505.31,27.579172 h 27.3 l 16.74,71.71 q 4.38,19.859998 6.35,34.409998 0.54,-5.11 2.46,-15.85 1.92,-10.74 3.63,-16.67 l 19.06,-73.599998 h 26.26 l 19,73.599998 q 1.26,4.94 3.14,15.09 1.88,10.15 2.86,17.43 0.9,-7 2.87,-17.47 1.97,-10.47 3.58,-16.939998 l 16.64,-71.71 h 27.3 z"
     style="fill:#4d4948"
     id="path4" />
</svg>
