<?xml version="1.0" encoding="utf-8"?>
<!-- Generator: Adobe Illustrator 26.5.0, SVG Export Plug-In . SVG Version: 6.00 Build 0)  -->
<svg version="1.1" id="Layer_1" xmlns="http://www.w3.org/2000/svg" xmlns:xlink="http://www.w3.org/1999/xlink" x="0px" y="0px"
	 viewBox="0 0 756.1 77.5" style="enable-background:new 0 0 756.1 77.5;" xml:space="preserve">
<style type="text/css">
	.st0{fill:#30235B;}
	.st1{fill-rule:evenodd;clip-rule:evenodd;fill:#30235B;}
	.st2{fill:#E9455B;}
</style>
<path class="st0" d="M0,76V1.5h45v11.2H13.2v21.1h27.1v11.2H13.2V76L0,76L0,76z"/>
<g>
	<path class="st0" d="M117.4,76.1V1.6h13.2v74.5H117.4z"/>
	<path class="st0" d="M149.5,76.1V1.6h25.2c5.2,0,9.8,0.7,14,2.1c4.1,1.4,7.4,3.7,9.8,6.9c2.4,3.2,3.6,7.6,3.6,13.2
		c0,5.7-1.4,10.3-4,13.8c-2.7,3.5-6.3,6-10.8,7.5L205,76.1h-14.8l-16.1-29.2h-11.4v29.2L149.5,76.1L149.5,76.1z M162.7,36.5h10.6
		c5.1,0,9-1.1,11.7-3.2c2.7-2.2,4-5.3,4-9.5c0-4.3-1.4-7.2-4-8.9c-2.7-1.7-6.6-2.6-11.7-2.6h-10.6C162.7,12.2,162.7,36.5,162.7,36.5
		z"/>
	<path class="st0" d="M214.3,38.7c0-24,14.1-38.7,33.2-38.7c9.1,0,16.2,4.3,20.6,9.2l-5.2,5.9c-4-4.1-8.9-6.7-15.3-6.7
		c-14,0-23.4,11.5-23.4,30.1c0,18.8,8.9,30.5,23,30.5c7.2,0,12.5-2.8,17.3-8.1l5.2,5.7c-6,6.9-13.3,10.8-22.9,10.8
		C228.2,77.5,214.3,63.1,214.3,38.7L214.3,38.7z"/>
	<path class="st0" d="M274.7,38.4c0-23.9,13.1-38.4,31.9-38.4s32,14.6,32,38.4c0,24-13.2,39.1-32,39.1S274.7,62.4,274.7,38.4z
		 M328.7,38.4c0-18.6-8.8-30-22.1-30s-22,11.4-22,30c0,18.7,8.7,30.6,22,30.6S328.7,57.1,328.7,38.4z"/>
	<path class="st0" d="M348.2,38.4c0-23.9,13.1-38.4,31.9-38.4s32,14.6,32,38.4c0,24-13.2,39.1-32,39.1S348.2,62.4,348.2,38.4z
		 M402.2,38.4c0-18.6-8.8-30-22.1-30s-22,11.4-22,30c0,18.7,8.7,30.6,22,30.6S402.2,57.1,402.2,38.4z"/>
	<path class="st0" d="M425.4,1.4h9.6v37.4h0.3l30.9-37.4h10.9l-23.5,28.5l27,46.3h-10.7l-22.2-38.7l-12.8,15.2v23.6h-9.6L425.4,1.4
		L425.4,1.4z"/>
	<path class="st0" d="M489.7,1.4h22.2c15.2,0,25.8,5.1,25.8,18.2c0,7.4-4,14-10.9,16.3v0.5c8.9,1.7,15.2,7.6,15.2,17.9
		c0,14.7-11.6,21.9-28.3,21.9h-23.9L489.7,1.4L489.7,1.4z M510.3,33.2c12.6,0,17.9-4.7,17.9-12.3c0-8.7-5.9-11.8-17.5-11.8h-11.4
		v24.2H510.3L510.3,33.2z M512.2,68.5c12.8,0,20.2-4.6,20.2-14.6c0-9.2-7.2-13.4-20.2-13.4h-13v28H512.2z"/>
	<path class="st0" d="M550.2,38.4c0-23.9,13.1-38.4,31.9-38.4s32,14.6,32,38.4c0,24-13.2,39.1-32,39.1S550.2,62.4,550.2,38.4z
		 M604.2,38.4c0-18.6-8.8-30-22.1-30s-22,11.4-22,30c0,18.7,8.7,30.6,22,30.6S604.2,57.1,604.2,38.4z"/>
	<path class="st0" d="M623.7,38.4c0-23.9,13.1-38.4,31.9-38.4s32,14.6,32,38.4c0,24-13.2,39.1-32,39.1S623.7,62.4,623.7,38.4
		L623.7,38.4z M677.7,38.4c0-18.6-8.8-30-22.1-30s-22,11.4-22,30c0,18.7,8.7,30.6,22,30.6S677.7,57.1,677.7,38.4z"/>
	<path class="st0" d="M700.9,1.4h9.6v37.4h0.3l30.9-37.4h10.9l-23.5,28.5l27,46.3h-10.7l-22.2-38.7l-12.8,15.2v23.6h-9.6L700.9,1.4
		L700.9,1.4z"/>
</g>
<g id="Book">
	<path id="pages_right" class="st0" d="M82.4,74.1h7.6L75.9,16.2C75.9,16.2,82.4,74.1,82.4,74.1z"/>
	<path id="pages_left" class="st1" d="M75.9,16.3l-18,57.8h18.6L75.9,16.3L75.9,16.3z"/>
	<polygon id="cover" class="st2" points="45.4,76.4 70.6,1.7 81.5,1.6 106.7,76.4 96.6,76.4 76.1,9.5 75.6,9.5 55.1,76.4 	"/>
</g>
</svg>
