<?xml version="1.0" encoding="UTF-8" standalone="no"?>
<!-- Generator: Adobe Illustrator 16.0.0, SVG Export Plug-In . SVG Version: 6.00 Build 0)  -->

<svg
   version="1.1"
   id="Layer_1"
   x="0px"
   y="0px"
   width="225.92599"
   height="39.223999"
   viewBox="0 0 225.92599 39.223999"
   enable-background="new 0 0 244.029 80"
   xml:space="preserve"
   sodipodi:docname="fairsharing_logo.svg"
   inkscape:version="1.3.1 (9b9bdc1480, 2023-11-25, custom)"
   xmlns:inkscape="http://www.inkscape.org/namespaces/inkscape"
   xmlns:sodipodi="http://sodipodi.sourceforge.net/DTD/sodipodi-0.dtd"
   xmlns="http://www.w3.org/2000/svg"
   xmlns:svg="http://www.w3.org/2000/svg"><defs
   id="defs46" /><sodipodi:namedview
   id="namedview46"
   pagecolor="#ffffff"
   bordercolor="#000000"
   borderopacity="0.25"
   inkscape:showpageshadow="2"
   inkscape:pageopacity="0.0"
   inkscape:pagecheckerboard="0"
   inkscape:deskcolor="#d1d1d1"
   showgrid="false"
   inkscape:zoom="4.9666227"
   inkscape:cx="111.9473"
   inkscape:cy="15.000133"
   inkscape:window-width="1920"
   inkscape:window-height="959"
   inkscape:window-x="0"
   inkscape:window-y="0"
   inkscape:window-maximized="1"
   inkscape:current-layer="Layer_1" />
<g
   id="g15"
   transform="translate(-10.14,-24.974)">
	<path
   fill="#36a9e1"
   d="m 23.49,26.234 v 2.22 H 12.54 v 7.53 h 9.81 v 2.19 h -9.81 v 9.06 h -2.4 v -21 z"
   id="path1" />
	<path
   fill="#36a9e1"
   d="M 39.54,41.864 H 28.11 l -2.34,5.37 h -2.55 l 9.419,-20.999 h 2.49 l 9.39,20.999 h -2.61 z M 38.58,39.644 33.81,28.845 29.1,39.644 Z"
   id="path2" />
	<path
   fill="#36a9e1"
   d="m 50.219,26.234 v 20.999 h -2.4 V 26.234 Z"
   id="path3" />
	<path
   fill="#36a9e1"
   d="m 70.319,47.233 -4.41,-6.72 c -0.42,0.03 -0.87,0.06 -1.35,0.06 h -5.58 v 6.66 h -2.4 V 26.234 h 7.98 c 5.25,0 8.28,2.58 8.28,7.05 0,3.45 -1.71,5.819 -4.74,6.779 l 4.95,7.17 z m -5.76,-8.879 c 3.81,0 5.97,-1.709 5.97,-5.01 0,-3.209 -2.16,-4.89 -5.97,-4.89 h -5.58 v 9.899 h 5.58 z"
   id="path4" />
	<path
   d="m 81.989,33.314 c -1.77,0 -3.12,0.63 -3.12,2.13 0,3.57 8.82,1.74 8.82,7.41 0,3.09 -2.76,4.47 -5.79,4.47 -2.25,0 -4.56,-0.78 -6.06,-2.22 l 0.9,-1.71 c 1.35,1.26 3.39,2.01 5.25,2.01 1.86,0 3.36,-0.72 3.39,-2.31 0.09,-3.84 -8.76,-1.89 -8.729,-7.47 0,-3 2.61,-4.29 5.49,-4.29 1.89,0 3.72,0.57 5.04,1.44 l -0.9,1.8 c -1.231,-0.78 -2.821,-1.26 -4.291,-1.26 z"
   id="path5" />
	<path
   d="m 106.168,37.514 v 9.72 h -2.34 v -9.12 c 0,-2.82 -1.68,-4.5 -4.47,-4.5 -3.36,0.03 -5.34,2.43 -5.34,5.88 v 7.74 h -2.34 v -22.26 h 2.34 v 10.02 c 1.08,-2.46 3.24,-3.6 6.15,-3.63 3.781,0 6,2.31 6,6.15 z"
   id="path6" />
	<path
   d="m 121.199,47.233 v -2.46 c -1.26,1.71 -3.27,2.55 -5.79,2.55 -3.27,0 -5.37,-2.07 -5.37,-4.77 0,-2.76 2.19,-4.5 5.91,-4.53 h 5.19 v -0.99 c 0,-2.31 -1.44,-3.72 -4.23,-3.72 -1.74,0 -3.36,0.66 -5.01,1.83 l -0.99,-1.65 c 2.04,-1.35 3.75,-2.13 6.45,-2.13 3.9,0 6.06,2.07 6.089,5.43 l 0.03,10.439 h -2.279 z m -0.031,-5.429 v -1.92 h -4.92 c -2.64,0 -4.02,0.81 -4.02,2.58 0,1.74 1.41,2.91 3.63,2.91 2.671,0 4.71,-1.32 5.31,-3.57 z"
   id="path7" />
	<path
   d="m 136.708,31.364 v 2.28 c -3.33,-0.06 -5.399,2.01 -5.669,5.19 v 8.399 h -2.34 V 31.454 h 2.34 v 3.51 c 1.05,-2.31 3,-3.57 5.669,-3.6 z"
   id="path8" />
	<path
   d="m 142.528,26.924 c 0,0.9 -0.66,1.59 -1.53,1.59 -0.87,0 -1.53,-0.69 -1.53,-1.59 0,-0.93 0.66,-1.59 1.53,-1.59 0.871,0 1.53,0.66 1.53,1.59 z m -0.36,4.53 v 15.779 h -2.31 V 31.454 Z"
   id="path9" />
	<path
   d="m 162.328,37.514 v 9.72 h -2.34 v -9.12 c 0,-2.82 -1.68,-4.5 -4.47,-4.5 -3.12,0.03 -5.04,2.1 -5.31,5.16 v 8.459 h -2.34 V 31.454 h 2.34 v 3.48 c 1.11,-2.4 3.24,-3.54 6.12,-3.57 3.78,0 6,2.31 6,6.15 z"
   id="path10" />
	<path
   d="m 181.317,31.454 v 14.129 c 0,4.62 -3.15,7.53 -7.95,7.53 -2.49,-0.03 -4.56,-0.84 -6.479,-2.31 l 1.08,-1.71 c 1.56,1.29 3.209,1.98 5.31,2.01 3.45,0 5.7,-2.13 5.7,-5.459 v -2.4 c -1.11,2.1 -3.15,3.3 -5.82,3.3 -4.26,0 -7.2,-3.15 -7.2,-7.62 0,-4.44 2.91,-7.53 7.14,-7.56 2.7,-0.03 4.74,1.2 5.88,3.3 v -3.21 z m -2.339,7.53 c 0,-3.3 -2.25,-5.67 -5.399,-5.67 -3.18,0 -5.4,2.37 -5.43,5.67 0.03,3.27 2.25,5.64 5.43,5.64 3.149,0 5.399,-2.371 5.399,-5.64 z"
   id="path11" />
	<path
   fill="#36a9e1"
   d="m 188.218,45.943 c 0,0.87 -0.63,1.53 -1.44,1.53 -0.84,0 -1.47,-0.66 -1.47,-1.53 0,-0.87 0.63,-1.53 1.47,-1.53 0.81,0.001 1.44,0.66 1.44,1.53 z"
   id="path12" />
	<path
   fill="#36a9e1"
   d="m 207.027,39.313 c 0,4.71 -3.33,8.01 -8.01,8.01 -4.709,0 -8.01,-3.3 -8.01,-8.01 0,-4.68 3.3,-7.949 8.01,-7.949 4.68,0 8.01,3.27 8.01,7.949 z m -13.679,0.031 c 0,3.54 2.34,5.94 5.669,5.94 3.3,0 5.67,-2.4 5.67,-5.94 0,-3.48 -2.37,-5.91 -5.67,-5.91 -3.329,0 -5.669,2.43 -5.669,5.91 z"
   id="path13" />
	<path
   fill="#36a9e1"
   d="m 219.147,31.364 v 2.28 c -3.33,-0.06 -5.399,2.01 -5.669,5.19 v 8.399 h -2.34 V 31.454 h 2.34 v 3.51 c 1.049,-2.31 2.999,-3.57 5.669,-3.6 z"
   id="path14" />
	<path
   fill="#36a9e1"
   d="m 236.066,31.454 v 14.129 c 0,4.62 -3.15,7.53 -7.95,7.53 -2.49,-0.03 -4.56,-0.84 -6.479,-2.31 l 1.08,-1.71 c 1.56,1.29 3.209,1.98 5.31,2.01 3.45,0 5.7,-2.13 5.7,-5.459 v -2.4 c -1.11,2.1 -3.15,3.3 -5.82,3.3 -4.26,0 -7.2,-3.15 -7.2,-7.62 0,-4.44 2.91,-7.53 7.14,-7.56 2.7,-0.03 4.74,1.2 5.88,3.3 v -3.21 z m -2.339,7.53 c 0,-3.3 -2.25,-5.67 -5.399,-5.67 -3.18,0 -5.4,2.37 -5.43,5.67 0.03,3.27 2.25,5.64 5.43,5.64 3.149,0 5.399,-2.371 5.399,-5.64 z"
   id="path15" />
</g>
<g
   id="g19"
   transform="translate(-10.14,-24.974)">
	<g
   id="g16">
		<path
   fill="#36a9e1"
   d="m 53.282,63.396 c -4.738,0 -10.152,-1.413 -15.708,-5.662 -5.472,-4.182 -10.654,-5.941 -15.397,-5.243 -5.686,0.844 -8.768,5.052 -8.799,5.089 -0.23,0.325 -0.68,0.397 -1.006,0.17 -0.325,-0.231 -0.395,-0.678 -0.165,-1.002 0.135,-0.194 3.438,-4.735 9.729,-5.679 5.16,-0.772 10.708,1.083 16.514,5.519 15.691,11.987 30.115,0.146 30.262,0.024 0.303,-0.253 0.761,-0.219 1.015,0.086 0.256,0.307 0.215,0.762 -0.088,1.02 -0.102,0.084 -6.915,5.678 -16.357,5.678 z"
   id="path16" />
	</g>
	<g
   id="g18">
		<g
   id="g17">
			<path
   fill="#323e50"
   d="m 24.241,63.431 c -0.776,0 -1.546,-0.055 -2.305,-0.168 -6.292,-0.947 -9.595,-5.488 -9.729,-5.684 -0.229,-0.32 -0.16,-0.768 0.165,-0.998 0.326,-0.232 0.775,-0.159 1.006,0.163 0.031,0.044 3.113,4.251 8.799,5.093 4.743,0.708 9.926,-1.056 15.397,-5.25 16.599,-12.672 31.909,-0.107 32.064,0.024 0.303,0.262 0.344,0.712 0.088,1.015 -0.254,0.304 -0.712,0.344 -1.015,0.091 -0.586,-0.496 -14.596,-11.945 -30.262,0.017 -4.952,3.789 -9.72,5.697 -14.208,5.697 z"
   id="path17" />
		</g>
	</g>
</g>
<g
   id="g46"
   transform="translate(-10.14,-24.974)">
	<path
   d="m 78.136,58.654 c -0.283,-0.297 -0.424,-0.628 -0.424,-0.994 0,-0.422 0.174,-0.787 0.521,-1.093 0.347,-0.307 0.831,-0.459 1.45,-0.459 0.412,0 0.801,0.075 1.168,0.225 0.367,0.15 0.68,0.371 0.938,0.664 l -0.594,0.502 c -0.222,-0.254 -0.452,-0.441 -0.688,-0.562 -0.236,-0.12 -0.507,-0.18 -0.812,-0.18 -0.391,0 -0.687,0.084 -0.89,0.252 -0.203,0.168 -0.304,0.363 -0.304,0.585 0,0.19 0.079,0.36 0.236,0.51 0.154,0.15 0.516,0.299 1.084,0.447 0.877,0.227 1.468,0.501 1.772,0.824 0.305,0.322 0.457,0.676 0.457,1.062 0,0.461 -0.182,0.856 -0.545,1.186 -0.363,0.329 -0.858,0.494 -1.485,0.494 -0.458,0 -0.881,-0.086 -1.268,-0.258 -0.387,-0.172 -0.795,-0.459 -1.225,-0.862 l 0.674,-0.47 c 0.322,0.322 0.624,0.552 0.907,0.69 0.283,0.138 0.581,0.207 0.896,0.207 0.401,0 0.711,-0.096 0.931,-0.288 0.22,-0.191 0.33,-0.416 0.33,-0.674 0,-0.215 -0.083,-0.399 -0.247,-0.553 -0.233,-0.218 -0.7,-0.419 -1.402,-0.602 -0.433,-0.115 -0.793,-0.242 -1.08,-0.381 -0.14,-0.066 -0.275,-0.157 -0.4,-0.272 z"
   id="path19" />
	<path
   d="m 84.022,54.121 h 0.773 v 2.105 h 1.434 v 0.714 h -1.434 v 3.588 c 0,0.297 0.079,0.529 0.236,0.695 0.158,0.167 0.369,0.25 0.634,0.25 0.143,0 0.331,-0.029 0.564,-0.086 v 0.704 c -0.269,0.032 -0.494,0.048 -0.677,0.048 -0.551,0 -0.944,-0.115 -1.179,-0.344 -0.234,-0.229 -0.352,-0.605 -0.352,-1.128 V 56.94 h -1.01 v -0.714 h 1.01 v -2.105 z"
   id="path20" />
	<path
   d="m 87.39,57.225 c 0.369,-0.383 0.768,-0.665 1.198,-0.846 0.43,-0.181 0.851,-0.271 1.262,-0.271 0.476,0 0.882,0.105 1.216,0.317 0.335,0.211 0.567,0.473 0.696,0.784 0.097,0.24 0.145,0.561 0.145,0.961 v 2.449 c 0,0.487 0.056,0.947 0.167,1.38 h -0.8 c -0.097,-0.34 -0.148,-0.663 -0.156,-0.967 -0.358,0.362 -0.722,0.633 -1.093,0.813 -0.37,0.181 -0.749,0.271 -1.136,0.271 -0.491,0 -0.886,-0.148 -1.187,-0.443 -0.301,-0.295 -0.451,-0.667 -0.451,-1.115 0,-0.365 0.116,-0.708 0.349,-1.027 0.233,-0.319 0.594,-0.57 1.085,-0.752 0.358,-0.133 1.169,-0.337 2.433,-0.612 v -0.359 c 0,-0.304 -0.106,-0.558 -0.32,-0.761 -0.213,-0.204 -0.482,-0.306 -0.808,-0.306 -0.293,0 -0.599,0.073 -0.916,0.217 -0.317,0.146 -0.687,0.397 -1.109,0.755 z m 3.728,3.356 v -1.839 c -0.87,0.208 -1.443,0.36 -1.719,0.457 -0.44,0.151 -0.764,0.345 -0.969,0.583 -0.206,0.238 -0.309,0.492 -0.309,0.761 0,0.254 0.088,0.465 0.266,0.632 0.177,0.167 0.414,0.25 0.711,0.25 0.283,0 0.593,-0.071 0.929,-0.212 0.336,-0.141 0.701,-0.352 1.091,-0.632 z"
   id="path21" />
	<path
   d="m 94.652,56.892 c 0.422,-0.25 0.832,-0.444 1.228,-0.58 0.396,-0.136 0.717,-0.204 0.964,-0.204 0.276,0 0.531,0.058 0.766,0.174 0.234,0.117 0.438,0.317 0.609,0.602 0.172,0.285 0.258,0.639 0.258,1.061 V 62 h -0.784 v -3.996 c 0,-0.397 -0.088,-0.693 -0.263,-0.886 -0.175,-0.193 -0.414,-0.29 -0.714,-0.29 -0.276,0 -0.585,0.059 -0.929,0.177 -0.344,0.118 -0.722,0.297 -1.133,0.537 V 62 H 93.87 v -5.774 h 0.784 v 0.666 z"
   id="path22" />
	<path
   d="m 104.325,53.857 h 0.779 V 60.2 c 0,0.33 0.021,0.67 0.064,1.023 0.043,0.353 0.091,0.612 0.145,0.776 h -0.806 c -0.086,-0.297 -0.131,-0.564 -0.134,-0.8 -0.347,0.304 -0.69,0.534 -1.029,0.688 -0.338,0.154 -0.672,0.231 -1.001,0.231 -0.652,0 -1.211,-0.264 -1.678,-0.792 -0.468,-0.528 -0.701,-1.26 -0.701,-2.194 0,-0.956 0.235,-1.699 0.706,-2.229 0.471,-0.53 1.032,-0.795 1.684,-0.795 0.333,0 0.657,0.071 0.972,0.212 0.315,0.141 0.648,0.366 0.999,0.674 z m 0,3.814 c -0.322,-0.287 -0.639,-0.5 -0.951,-0.642 -0.312,-0.142 -0.618,-0.212 -0.918,-0.212 -0.491,0 -0.899,0.191 -1.225,0.572 -0.326,0.382 -0.489,0.946 -0.489,1.695 0,0.784 0.167,1.371 0.5,1.759 0.333,0.388 0.739,0.583 1.219,0.583 0.293,0 0.596,-0.073 0.908,-0.217 0.312,-0.146 0.63,-0.363 0.956,-0.653 z"
   id="path23" />
	<path
   d="m 106.887,57.225 c 0.369,-0.383 0.768,-0.665 1.198,-0.846 0.43,-0.181 0.851,-0.271 1.262,-0.271 0.476,0 0.882,0.105 1.216,0.317 0.335,0.211 0.567,0.473 0.696,0.784 0.097,0.24 0.145,0.561 0.145,0.961 v 2.449 c 0,0.487 0.056,0.947 0.167,1.38 h -0.8 c -0.097,-0.34 -0.148,-0.663 -0.156,-0.967 -0.358,0.362 -0.722,0.633 -1.093,0.813 -0.37,0.181 -0.749,0.271 -1.136,0.271 -0.491,0 -0.886,-0.148 -1.187,-0.443 -0.301,-0.295 -0.451,-0.667 -0.451,-1.115 0,-0.365 0.116,-0.708 0.349,-1.027 0.233,-0.319 0.594,-0.57 1.085,-0.752 0.358,-0.133 1.169,-0.337 2.433,-0.612 v -0.359 c 0,-0.304 -0.106,-0.558 -0.32,-0.761 -0.213,-0.204 -0.482,-0.306 -0.808,-0.306 -0.293,0 -0.599,0.073 -0.916,0.217 -0.317,0.146 -0.687,0.397 -1.109,0.755 z m 3.728,3.356 v -1.839 c -0.87,0.208 -1.443,0.36 -1.719,0.457 -0.44,0.151 -0.764,0.345 -0.969,0.583 -0.206,0.238 -0.309,0.492 -0.309,0.761 0,0.254 0.088,0.465 0.266,0.632 0.177,0.167 0.414,0.25 0.711,0.25 0.283,0 0.593,-0.071 0.929,-0.212 0.336,-0.141 0.701,-0.352 1.091,-0.632 z"
   id="path24" />
	<path
   d="m 114.187,57.531 c 0.322,-0.494 0.66,-0.856 1.012,-1.085 0.353,-0.229 0.755,-0.344 1.206,-0.344 0.05,0 0.122,0.002 0.215,0.005 l -0.113,0.865 -0.285,-0.016 c -0.208,-0.011 -0.44,0.039 -0.698,0.148 -0.258,0.109 -0.488,0.282 -0.69,0.518 -0.202,0.236 -0.36,0.53 -0.475,0.881 -0.115,0.351 -0.172,0.661 -0.172,0.929 V 62 h -0.784 v -5.774 h 0.784 z"
   id="path25" />
	<path
   d="m 121.529,53.857 h 0.779 V 60.2 c 0,0.33 0.021,0.67 0.064,1.023 0.043,0.353 0.091,0.612 0.145,0.776 h -0.806 c -0.086,-0.297 -0.131,-0.564 -0.134,-0.8 -0.347,0.304 -0.69,0.534 -1.029,0.688 -0.338,0.154 -0.672,0.231 -1.001,0.231 -0.652,0 -1.211,-0.264 -1.678,-0.792 -0.468,-0.528 -0.701,-1.26 -0.701,-2.194 0,-0.956 0.235,-1.699 0.706,-2.229 0.471,-0.53 1.032,-0.795 1.684,-0.795 0.333,0 0.657,0.071 0.972,0.212 0.315,0.141 0.648,0.366 0.999,0.674 z m 0,3.814 c -0.322,-0.287 -0.639,-0.5 -0.951,-0.642 -0.312,-0.142 -0.618,-0.212 -0.918,-0.212 -0.491,0 -0.899,0.191 -1.225,0.572 -0.326,0.382 -0.489,0.946 -0.489,1.695 0,0.784 0.167,1.371 0.5,1.759 0.333,0.388 0.739,0.583 1.219,0.583 0.293,0 0.596,-0.073 0.908,-0.217 0.312,-0.146 0.63,-0.363 0.956,-0.653 z"
   id="path26" />
	<path
   d="m 124.461,58.654 c -0.283,-0.297 -0.424,-0.628 -0.424,-0.994 0,-0.422 0.174,-0.787 0.521,-1.093 0.347,-0.307 0.831,-0.459 1.45,-0.459 0.412,0 0.801,0.075 1.168,0.225 0.367,0.15 0.68,0.371 0.938,0.664 l -0.594,0.502 c -0.222,-0.254 -0.452,-0.441 -0.688,-0.562 -0.236,-0.12 -0.507,-0.18 -0.812,-0.18 -0.391,0 -0.687,0.084 -0.89,0.252 -0.203,0.168 -0.304,0.363 -0.304,0.585 0,0.19 0.079,0.36 0.236,0.51 0.154,0.15 0.516,0.299 1.084,0.447 0.877,0.227 1.468,0.501 1.772,0.824 0.305,0.322 0.457,0.676 0.457,1.062 0,0.461 -0.182,0.856 -0.545,1.186 -0.363,0.329 -0.858,0.494 -1.485,0.494 -0.458,0 -0.881,-0.086 -1.268,-0.258 -0.387,-0.172 -0.795,-0.459 -1.225,-0.862 l 0.674,-0.47 c 0.322,0.322 0.624,0.552 0.907,0.69 0.283,0.138 0.581,0.207 0.896,0.207 0.401,0 0.711,-0.096 0.931,-0.288 0.22,-0.191 0.33,-0.416 0.33,-0.674 0,-0.215 -0.083,-0.399 -0.247,-0.553 -0.233,-0.218 -0.7,-0.419 -1.402,-0.602 -0.433,-0.115 -0.793,-0.242 -1.08,-0.381 -0.14,-0.066 -0.274,-0.157 -0.4,-0.272 z"
   id="path27" />
	<path
   d="m 130.053,60.765 h 1.053 V 62 l -0.806,1.622 h -0.447 L 130.568,62 h -0.516 v -1.235 z"
   id="path28" />
	<path
   d="m 140.677,53.857 h 0.779 V 60.2 c 0,0.33 0.021,0.67 0.064,1.023 0.043,0.353 0.091,0.612 0.145,0.776 h -0.806 c -0.086,-0.297 -0.131,-0.564 -0.134,-0.8 -0.347,0.304 -0.69,0.534 -1.029,0.688 -0.338,0.154 -0.672,0.231 -1.001,0.231 -0.652,0 -1.211,-0.264 -1.678,-0.792 -0.468,-0.528 -0.701,-1.26 -0.701,-2.194 0,-0.956 0.235,-1.699 0.706,-2.229 0.471,-0.53 1.032,-0.795 1.684,-0.795 0.333,0 0.657,0.071 0.972,0.212 0.315,0.141 0.648,0.366 0.999,0.674 z m 0,3.814 c -0.322,-0.287 -0.639,-0.5 -0.951,-0.642 -0.312,-0.142 -0.618,-0.212 -0.918,-0.212 -0.491,0 -0.899,0.191 -1.225,0.572 -0.326,0.382 -0.489,0.946 -0.489,1.695 0,0.784 0.167,1.371 0.5,1.759 0.333,0.388 0.739,0.583 1.219,0.583 0.293,0 0.596,-0.073 0.908,-0.217 0.312,-0.146 0.63,-0.363 0.956,-0.653 z"
   id="path29" />
	<path
   d="m 143.239,57.225 c 0.369,-0.383 0.768,-0.665 1.198,-0.846 0.43,-0.181 0.851,-0.271 1.262,-0.271 0.476,0 0.882,0.105 1.216,0.317 0.335,0.211 0.567,0.473 0.696,0.784 0.097,0.24 0.145,0.561 0.145,0.961 v 2.449 c 0,0.487 0.056,0.947 0.167,1.38 h -0.8 c -0.097,-0.34 -0.148,-0.663 -0.156,-0.967 -0.358,0.362 -0.722,0.633 -1.093,0.813 -0.37,0.181 -0.749,0.271 -1.136,0.271 -0.491,0 -0.886,-0.148 -1.187,-0.443 -0.301,-0.295 -0.451,-0.667 -0.451,-1.115 0,-0.365 0.116,-0.708 0.349,-1.027 0.233,-0.319 0.594,-0.57 1.085,-0.752 0.358,-0.133 1.169,-0.337 2.433,-0.612 v -0.359 c 0,-0.304 -0.106,-0.558 -0.32,-0.761 -0.213,-0.204 -0.482,-0.306 -0.808,-0.306 -0.293,0 -0.599,0.073 -0.916,0.217 -0.317,0.146 -0.687,0.397 -1.109,0.755 z m 3.727,3.356 v -1.839 c -0.87,0.208 -1.443,0.36 -1.719,0.457 -0.44,0.151 -0.764,0.345 -0.969,0.583 -0.206,0.238 -0.309,0.492 -0.309,0.761 0,0.254 0.088,0.465 0.266,0.632 0.177,0.167 0.414,0.25 0.711,0.25 0.283,0 0.593,-0.071 0.929,-0.212 0.336,-0.141 0.701,-0.352 1.091,-0.632 z"
   id="path30" />
	<path
   d="m 150.082,54.121 h 0.773 v 2.105 h 1.434 v 0.714 h -1.434 v 3.588 c 0,0.297 0.079,0.529 0.236,0.695 0.158,0.167 0.369,0.25 0.634,0.25 0.143,0 0.331,-0.029 0.564,-0.086 v 0.704 c -0.269,0.032 -0.494,0.048 -0.677,0.048 -0.551,0 -0.944,-0.115 -1.179,-0.344 -0.234,-0.229 -0.352,-0.605 -0.352,-1.128 V 56.94 h -1.01 v -0.714 h 1.01 v -2.105 z"
   id="path31" />
	<path
   d="m 153.449,57.225 c 0.369,-0.383 0.768,-0.665 1.198,-0.846 0.43,-0.181 0.851,-0.271 1.262,-0.271 0.476,0 0.882,0.105 1.216,0.317 0.335,0.211 0.567,0.473 0.696,0.784 0.097,0.24 0.145,0.561 0.145,0.961 v 2.449 c 0,0.487 0.056,0.947 0.167,1.38 h -0.8 c -0.097,-0.34 -0.148,-0.663 -0.156,-0.967 -0.358,0.362 -0.722,0.633 -1.093,0.813 -0.37,0.181 -0.749,0.271 -1.136,0.271 -0.491,0 -0.886,-0.148 -1.187,-0.443 -0.301,-0.295 -0.451,-0.667 -0.451,-1.115 0,-0.365 0.116,-0.708 0.349,-1.027 0.233,-0.319 0.594,-0.57 1.085,-0.752 0.358,-0.133 1.169,-0.337 2.433,-0.612 v -0.359 c 0,-0.304 -0.106,-0.558 -0.32,-0.761 -0.213,-0.204 -0.482,-0.306 -0.808,-0.306 -0.293,0 -0.599,0.073 -0.916,0.217 -0.317,0.146 -0.687,0.397 -1.109,0.755 z m 3.728,3.356 v -1.839 c -0.87,0.208 -1.443,0.36 -1.719,0.457 -0.44,0.151 -0.764,0.345 -0.969,0.583 -0.206,0.238 -0.309,0.492 -0.309,0.761 0,0.254 0.088,0.465 0.266,0.632 0.177,0.167 0.414,0.25 0.711,0.25 0.283,0 0.593,-0.071 0.929,-0.212 0.336,-0.141 0.701,-0.352 1.091,-0.632 z"
   id="path32" />
	<path
   d="m 159.841,53.857 h 0.779 v 3.104 c 0.254,-0.258 0.562,-0.465 0.924,-0.62 0.362,-0.156 0.711,-0.234 1.047,-0.234 0.652,0 1.215,0.269 1.689,0.806 0.474,0.537 0.711,1.27 0.711,2.197 0,0.587 -0.106,1.118 -0.32,1.593 -0.213,0.474 -0.512,0.829 -0.896,1.063 -0.385,0.234 -0.789,0.352 -1.211,0.352 -0.322,0 -0.636,-0.067 -0.94,-0.201 -0.304,-0.135 -0.639,-0.359 -1.004,-0.674 V 62 h -0.779 z m 0.779,6.704 c 0.401,0.319 0.744,0.538 1.029,0.658 0.284,0.12 0.57,0.18 0.856,0.18 0.473,0 0.875,-0.195 1.208,-0.585 0.333,-0.39 0.5,-0.967 0.5,-1.729 0,-0.749 -0.168,-1.316 -0.505,-1.703 -0.337,-0.387 -0.755,-0.58 -1.257,-0.58 -0.304,0 -0.609,0.071 -0.916,0.212 -0.306,0.142 -0.611,0.355 -0.916,0.642 v 2.905 z"
   id="path33" />
	<path
   d="m 166.302,57.225 c 0.369,-0.383 0.768,-0.665 1.198,-0.846 0.43,-0.181 0.851,-0.271 1.262,-0.271 0.476,0 0.882,0.105 1.216,0.317 0.335,0.211 0.567,0.473 0.696,0.784 0.097,0.24 0.145,0.561 0.145,0.961 v 2.449 c 0,0.487 0.056,0.947 0.167,1.38 h -0.8 c -0.097,-0.34 -0.148,-0.663 -0.156,-0.967 -0.358,0.362 -0.722,0.633 -1.093,0.813 -0.37,0.181 -0.749,0.271 -1.136,0.271 -0.491,0 -0.886,-0.148 -1.187,-0.443 -0.301,-0.295 -0.451,-0.667 -0.451,-1.115 0,-0.365 0.116,-0.708 0.349,-1.027 0.233,-0.319 0.594,-0.57 1.085,-0.752 0.358,-0.133 1.169,-0.337 2.433,-0.612 v -0.359 c 0,-0.304 -0.106,-0.558 -0.32,-0.761 -0.213,-0.204 -0.482,-0.306 -0.808,-0.306 -0.293,0 -0.599,0.073 -0.916,0.217 -0.317,0.146 -0.687,0.397 -1.109,0.755 z m 3.728,3.356 v -1.839 c -0.87,0.208 -1.443,0.36 -1.719,0.457 -0.44,0.151 -0.764,0.345 -0.969,0.583 -0.206,0.238 -0.309,0.492 -0.309,0.761 0,0.254 0.088,0.465 0.266,0.632 0.177,0.167 0.414,0.25 0.711,0.25 0.283,0 0.593,-0.071 0.929,-0.212 0.336,-0.141 0.701,-0.352 1.091,-0.632 z"
   id="path34" />
	<path
   d="m 172.866,58.654 c -0.283,-0.297 -0.424,-0.628 -0.424,-0.994 0,-0.422 0.174,-0.787 0.521,-1.093 0.347,-0.307 0.831,-0.459 1.45,-0.459 0.412,0 0.801,0.075 1.168,0.225 0.367,0.15 0.68,0.371 0.938,0.664 l -0.594,0.502 c -0.222,-0.254 -0.452,-0.441 -0.688,-0.562 -0.236,-0.12 -0.507,-0.18 -0.812,-0.18 -0.391,0 -0.687,0.084 -0.89,0.252 -0.203,0.168 -0.304,0.363 -0.304,0.585 0,0.19 0.079,0.36 0.236,0.51 0.154,0.15 0.516,0.299 1.084,0.447 0.877,0.227 1.468,0.501 1.772,0.824 0.305,0.322 0.457,0.676 0.457,1.062 0,0.461 -0.182,0.856 -0.545,1.186 -0.363,0.329 -0.858,0.494 -1.485,0.494 -0.458,0 -0.881,-0.086 -1.268,-0.258 -0.387,-0.172 -0.795,-0.459 -1.225,-0.862 l 0.674,-0.47 c 0.322,0.322 0.624,0.552 0.907,0.69 0.283,0.138 0.581,0.207 0.896,0.207 0.401,0 0.711,-0.096 0.931,-0.288 0.22,-0.191 0.33,-0.416 0.33,-0.674 0,-0.215 -0.083,-0.399 -0.247,-0.553 -0.233,-0.218 -0.7,-0.419 -1.402,-0.602 -0.433,-0.115 -0.793,-0.242 -1.08,-0.381 -0.141,-0.066 -0.275,-0.157 -0.4,-0.272 z"
   id="path35" />
	<path
   d="m 182.818,60.706 c -0.354,0.476 -0.732,0.831 -1.133,1.063 -0.401,0.232 -0.816,0.349 -1.246,0.349 -0.68,0 -1.264,-0.268 -1.751,-0.803 -0.487,-0.536 -0.73,-1.281 -0.73,-2.237 0,-0.92 0.241,-1.646 0.723,-2.175 0.481,-0.53 1.044,-0.795 1.689,-0.795 0.43,0 0.843,0.126 1.241,0.378 0.397,0.253 0.695,0.594 0.895,1.023 0.198,0.43 0.303,0.988 0.314,1.676 h -4.077 c 0.018,0.458 0.088,0.834 0.209,1.128 0.161,0.387 0.378,0.669 0.65,0.846 0.272,0.178 0.535,0.266 0.79,0.266 0.637,0 1.233,-0.39 1.789,-1.171 z m -0.816,-2.224 c -0.057,-0.544 -0.243,-0.971 -0.556,-1.281 -0.313,-0.31 -0.667,-0.465 -1.061,-0.465 -0.48,0 -0.864,0.184 -1.152,0.551 -0.288,0.367 -0.441,0.765 -0.459,1.195 z"
   id="path36" />
	<path
   d="m 184.435,58.654 c -0.283,-0.297 -0.424,-0.628 -0.424,-0.994 0,-0.422 0.174,-0.787 0.521,-1.093 0.347,-0.307 0.831,-0.459 1.45,-0.459 0.412,0 0.801,0.075 1.168,0.225 0.367,0.15 0.68,0.371 0.938,0.664 l -0.594,0.502 c -0.222,-0.254 -0.452,-0.441 -0.688,-0.562 -0.236,-0.12 -0.507,-0.18 -0.812,-0.18 -0.391,0 -0.687,0.084 -0.89,0.252 -0.203,0.168 -0.304,0.363 -0.304,0.585 0,0.19 0.079,0.36 0.236,0.51 0.154,0.15 0.516,0.299 1.084,0.447 0.877,0.227 1.468,0.501 1.772,0.824 0.305,0.322 0.457,0.676 0.457,1.062 0,0.461 -0.182,0.856 -0.545,1.186 -0.363,0.329 -0.858,0.494 -1.485,0.494 -0.458,0 -0.881,-0.086 -1.268,-0.258 -0.387,-0.172 -0.795,-0.459 -1.225,-0.862 l 0.674,-0.47 c 0.322,0.322 0.624,0.552 0.907,0.69 0.283,0.138 0.581,0.207 0.896,0.207 0.401,0 0.711,-0.096 0.931,-0.288 0.22,-0.191 0.33,-0.416 0.33,-0.674 0,-0.215 -0.083,-0.399 -0.247,-0.553 -0.233,-0.218 -0.7,-0.419 -1.402,-0.602 -0.433,-0.115 -0.793,-0.242 -1.08,-0.381 -0.14,-0.066 -0.274,-0.157 -0.4,-0.272 z"
   id="path37" />
	<path
   d="m 190.026,60.765 h 1.053 V 62 l -0.806,1.622 h -0.447 L 190.542,62 h -0.516 z"
   id="path38" />
	<path
   d="m 197.524,56.957 c 0.315,-0.283 0.637,-0.495 0.964,-0.636 0.328,-0.142 0.662,-0.212 1.002,-0.212 0.426,0 0.832,0.122 1.217,0.365 0.385,0.244 0.679,0.604 0.883,1.08 0.204,0.476 0.306,0.999 0.306,1.568 0,0.598 -0.105,1.131 -0.317,1.598 -0.211,0.468 -0.509,0.817 -0.894,1.05 -0.385,0.233 -0.784,0.349 -1.195,0.349 -0.34,0 -0.674,-0.073 -1.002,-0.22 -0.327,-0.147 -0.649,-0.365 -0.964,-0.655 v 2.954 h -0.779 v -7.971 h 0.779 z m 0,3.604 c 0.34,0.279 0.669,0.489 0.988,0.628 0.319,0.139 0.628,0.209 0.929,0.209 0.455,0 0.848,-0.195 1.179,-0.585 0.331,-0.39 0.497,-0.974 0.497,-1.751 0,-0.745 -0.169,-1.31 -0.507,-1.695 -0.339,-0.385 -0.748,-0.577 -1.228,-0.577 -0.283,0 -0.579,0.071 -0.889,0.212 -0.31,0.142 -0.633,0.355 -0.97,0.642 v 2.917 z"
   id="path39" />
	<path
   d="m 205.705,62.118 c -0.741,0 -1.364,-0.271 -1.869,-0.811 -0.505,-0.54 -0.757,-1.268 -0.757,-2.181 0,-0.609 0.112,-1.148 0.336,-1.62 0.224,-0.471 0.536,-0.821 0.937,-1.053 0.401,-0.23 0.827,-0.346 1.278,-0.346 0.437,0 0.855,0.119 1.254,0.357 0.399,0.238 0.715,0.598 0.948,1.08 0.233,0.481 0.349,1.02 0.349,1.614 0,0.906 -0.245,1.625 -0.736,2.159 -0.491,0.534 -1.071,0.801 -1.74,0.801 z m -0.07,-0.666 c 0.473,0 0.884,-0.204 1.232,-0.612 0.35,-0.408 0.524,-0.994 0.524,-1.756 0,-0.752 -0.17,-1.325 -0.51,-1.719 -0.34,-0.394 -0.75,-0.591 -1.23,-0.591 -0.508,0 -0.936,0.201 -1.281,0.602 -0.346,0.401 -0.519,0.974 -0.519,1.719 0,0.763 0.174,1.346 0.521,1.751 0.347,0.405 0.769,0.606 1.263,0.606 z"
   id="path40" />
	<path
   d="m 209.937,53.857 h 0.784 V 62 h -0.784 z"
   id="path41" />
	<path
   d="m 213.025,53.933 h 0.784 v 0.94 h -0.784 z m 0,2.293 h 0.784 V 62 h -0.784 z"
   id="path42" />
	<path
   d="m 220.319,60.598 c -0.261,0.469 -0.548,0.82 -0.859,1.053 -0.416,0.312 -0.883,0.467 -1.402,0.467 -0.451,0 -0.875,-0.122 -1.27,-0.365 -0.396,-0.244 -0.702,-0.596 -0.919,-1.058 -0.216,-0.462 -0.325,-0.992 -0.325,-1.59 0,-0.92 0.246,-1.65 0.739,-2.189 0.492,-0.539 1.085,-0.808 1.78,-0.808 0.469,0 0.895,0.124 1.278,0.371 0.383,0.247 0.709,0.618 0.978,1.112 l -0.682,0.371 c -0.218,-0.405 -0.455,-0.706 -0.709,-0.905 -0.254,-0.198 -0.546,-0.298 -0.875,-0.298 -0.469,0 -0.875,0.201 -1.217,0.602 -0.342,0.401 -0.513,0.999 -0.513,1.794 0,0.702 0.173,1.257 0.519,1.665 0.345,0.408 0.742,0.612 1.189,0.612 0.677,0 1.212,-0.403 1.606,-1.208 z"
   id="path43" />
	<path
   d="m 221.952,53.933 h 0.784 v 0.94 h -0.784 z m 0,2.293 h 0.784 V 62 h -0.784 z"
   id="path44" />
	<path
   d="m 229.337,60.706 c -0.354,0.476 -0.732,0.831 -1.133,1.063 -0.401,0.232 -0.816,0.349 -1.246,0.349 -0.68,0 -1.264,-0.268 -1.751,-0.803 -0.487,-0.536 -0.73,-1.281 -0.73,-2.237 0,-0.92 0.241,-1.646 0.723,-2.175 0.481,-0.53 1.044,-0.795 1.689,-0.795 0.43,0 0.843,0.126 1.241,0.378 0.397,0.253 0.695,0.594 0.895,1.023 0.198,0.43 0.303,0.988 0.314,1.676 h -4.077 c 0.018,0.458 0.088,0.834 0.209,1.128 0.161,0.387 0.378,0.669 0.65,0.846 0.272,0.178 0.535,0.266 0.79,0.266 0.637,0 1.233,-0.39 1.789,-1.171 z m -0.816,-2.224 c -0.057,-0.544 -0.243,-0.971 -0.556,-1.281 -0.313,-0.31 -0.667,-0.465 -1.061,-0.465 -0.48,0 -0.864,0.184 -1.152,0.551 -0.288,0.367 -0.441,0.765 -0.459,1.195 z"
   id="path45" />
	<path
   d="m 230.954,58.654 c -0.283,-0.297 -0.424,-0.628 -0.424,-0.994 0,-0.422 0.174,-0.787 0.521,-1.093 0.347,-0.307 0.831,-0.459 1.45,-0.459 0.412,0 0.801,0.075 1.168,0.225 0.367,0.15 0.68,0.371 0.938,0.664 l -0.594,0.502 c -0.222,-0.254 -0.452,-0.441 -0.688,-0.562 -0.236,-0.12 -0.507,-0.18 -0.812,-0.18 -0.391,0 -0.687,0.084 -0.89,0.252 -0.203,0.168 -0.304,0.363 -0.304,0.585 0,0.19 0.079,0.36 0.236,0.51 0.154,0.15 0.516,0.299 1.084,0.447 0.877,0.227 1.468,0.501 1.772,0.824 0.305,0.322 0.457,0.676 0.457,1.062 0,0.461 -0.182,0.856 -0.545,1.186 -0.363,0.329 -0.858,0.494 -1.485,0.494 -0.458,0 -0.881,-0.086 -1.268,-0.258 -0.387,-0.172 -0.795,-0.459 -1.225,-0.862 l 0.674,-0.47 c 0.322,0.322 0.624,0.552 0.907,0.69 0.283,0.138 0.581,0.207 0.896,0.207 0.401,0 0.711,-0.096 0.931,-0.288 0.22,-0.191 0.33,-0.416 0.33,-0.674 0,-0.215 -0.083,-0.399 -0.247,-0.553 -0.233,-0.218 -0.7,-0.419 -1.402,-0.602 -0.433,-0.115 -0.793,-0.242 -1.08,-0.381 -0.14,-0.066 -0.274,-0.157 -0.4,-0.272 z"
   id="path46" />
</g>
</svg>
