<svg xmlns="http://www.w3.org/2000/svg" version="1.1" xmlns:xlink="http://www.w3.org/1999/xlink" width="77.2" height="77.12"><svg id="SvgjsSvg1005" data-name="Layer 1" xmlns="http://www.w3.org/2000/svg" width="77.2" height="77.12" viewBox="0 0 77.2 77.12">
  <defs>
    <style>
      .cls-1 {
        fill: #0d6efd;
      }

      .cls-2, .cls-3 {
        fill: #fff;
      }

      .cls-2 {
        opacity: 0.18;
      }
    </style>
  </defs>
  <g>
    <circle class="cls-1" cx="38.56" cy="38.56" r="38.56"></circle>
    <path class="cls-2" d="M9,48.08a44.19,44.19,0,0,0,4.68,19.84A38.56,38.56,0,1,0,55.16,3.72c-.59,0-1.19-.05-1.79-.05A44.4,44.4,0,0,0,9,48.08Z"></path>
    <path class="cls-3" d="M54,20.52H13.64a.85.85,0,0,0-.84.85v34a.84.84,0,0,0,.84.84H30a.84.84,0,0,0,.85-.84V51.16a.85.85,0,0,0-.85-.85H20.07a.85.85,0,0,1-.85-.85V42a.85.85,0,0,1,.85-.84h8.66a.85.85,0,0,0,.85-.85V36.06a.85.85,0,0,0-.85-.85H20.07a.85.85,0,0,1-.85-.84V27.29a.85.85,0,0,1,.85-.85H38.26a.85.85,0,0,1,.85.85V55.38a.84.84,0,0,0,.85.84h4.73a.84.84,0,0,0,.85-.84V27.29a.85.85,0,0,1,.84-.85H61.27a.85.85,0,0,1,.84.85V55.38a.84.84,0,0,0,.85.84h4.73a.84.84,0,0,0,.85-.84V27.29a.85.85,0,0,1,.85-.85h6.77a.84.84,0,0,0,.84-.85V21.37a.84.84,0,0,0-.84-.85Z"></path>
  </g>
</svg><style>@media (prefers-color-scheme: light) { :root { filter: none; } }
@media (prefers-color-scheme: dark) { :root { filter: none; } }
</style></svg>