<svg width="57" height="40" viewBox="0 0 57 40" fill="none" xmlns="http://www.w3.org/2000/svg">
<path d="M0 0V40H57V0H0ZM38.5806 11.4266C38.5806 11.3648 38.6415 11.3055 38.7001 11.3055C38.7611 11.3055 38.8197 11.3055 38.8806 11.3672L39.7196 12.583L41.2196 12.4002C41.2806 12.4002 41.3392 12.4002 41.4001 12.4619C41.461 12.5236 41.4001 12.583 41.4001 12.6447L40.5001 13.8605L41.1611 15.1974V15.3802C41.1001 15.442 41.0415 15.442 40.9806 15.442L39.6001 14.9552L38.5196 15.9881C38.4587 15.9881 38.4587 16.0499 38.4001 16.0499H38.3392C38.2782 16.0499 38.2196 15.9881 38.2196 15.9288L38.2806 14.409L36.9611 13.68C36.9001 13.6183 36.9001 13.5589 36.9001 13.4972C36.9001 13.4355 36.9611 13.3761 37.0197 13.3761L38.4587 12.951L38.5806 11.4266ZM32.5194 9.9686L33.5389 8.87391L33.0585 7.47527C33.0585 7.41353 33.0585 7.35416 33.1194 7.29242C33.1803 7.23069 33.2389 7.23069 33.2999 7.29242L34.6194 7.96208L35.8194 7.05024C35.8803 6.9885 35.9389 6.9885 35.9998 7.05024C36.0608 7.11198 36.0608 7.17134 36.0608 7.23308L35.8803 8.75282L37.0803 9.60289C37.1413 9.66463 37.1412 9.724 37.1412 9.78574C37.1412 9.84747 37.0803 9.90684 37.0217 9.90684L35.5827 10.2108L35.0999 11.4883C35.0999 11.5501 35.0389 11.6094 34.9803 11.6094C34.9194 11.6094 34.8608 11.5477 34.8608 11.5477L34.1413 10.2108L32.6389 10.2726C32.578 10.2726 32.5194 10.2108 32.5194 10.1515C32.4608 10.0897 32.4608 10.0303 32.5194 9.9686ZM15.8388 12.4002L17.3388 12.583L18.1778 11.3672C18.2388 11.3055 18.2974 11.3055 18.3583 11.3055C18.4192 11.3055 18.4778 11.3672 18.4778 11.4266L18.7778 12.8846L20.0997 13.312C20.1606 13.312 20.2192 13.3737 20.2192 13.4331C20.2192 13.4948 20.2192 13.5542 20.1583 13.6159L18.8388 14.3449L18.8997 15.8647C18.8997 15.9264 18.8388 15.9858 18.7802 15.9858H18.7192C18.6583 15.9858 18.6583 15.9858 18.5997 15.924L17.5192 14.8911L16.1388 15.3779C16.0778 15.3779 16.0192 15.3779 15.9583 15.3161C15.8973 15.2544 15.8973 15.195 15.9583 15.1333L16.6192 13.7964L15.7192 12.5806C15.6583 12.5189 15.6583 12.4595 15.7192 12.3978C15.6607 12.4002 15.7193 12.3384 15.8388 12.4002ZM15.4193 22.3684C15.3607 22.3684 15.3607 22.3684 15.4193 22.3684C15.2997 22.3684 15.2388 22.3067 15.2388 22.2473L15.1193 20.7276L13.7388 20.1197C13.6779 20.1197 13.6193 20.0579 13.6193 19.9986C13.6193 19.9368 13.6802 19.8775 13.7388 19.8775L15.1193 19.2696L15.2388 17.7498C15.2388 17.6881 15.2997 17.6287 15.3583 17.6287C15.4193 17.6287 15.4779 17.6287 15.5388 17.6905L16.4998 18.7828L17.9388 18.4171C17.9997 18.4171 18.0583 18.4171 18.1193 18.4789C18.1802 18.5406 18.1802 18.6 18.1193 18.6617L17.3388 19.9986L18.1193 21.2761C18.1802 21.3379 18.1802 21.3972 18.1193 21.459C18.0583 21.5207 17.9997 21.5207 17.9388 21.5207L16.4998 21.1526L15.5388 22.3067C15.4802 22.309 15.4802 22.3684 15.4193 22.3684ZM18.4193 28.5708C18.4193 28.6325 18.3583 28.6919 18.2997 28.6919H18.2388C18.1779 28.6919 18.1193 28.6919 18.1193 28.6301L17.2802 27.4143L15.7802 27.5972C15.7193 27.5972 15.6607 27.5972 15.5998 27.5354C15.5388 27.4737 15.5998 27.4143 15.5998 27.3526L16.4998 26.1368L15.8998 24.7405V24.5577C15.9607 24.496 16.0193 24.496 16.0802 24.496L17.4607 24.9827L18.5412 23.9498C18.6021 23.8881 18.6607 23.8881 18.7217 23.8881C18.7826 23.8881 18.8412 23.9498 18.8412 24.0092L18.7803 25.5289L20.0998 26.2579C20.1607 26.2579 20.1607 26.3196 20.1607 26.4407C20.1607 26.5025 20.0998 26.5618 20.0412 26.5618L18.6021 26.9869L18.4193 28.5708ZM24.4805 30.0287L23.4609 31.1234L23.9414 32.5221C23.9414 32.5838 23.9414 32.6432 23.8805 32.7049C23.8195 32.7666 23.7609 32.7666 23.7 32.7049L22.3805 32.0352L21.1805 32.9471C21.1805 32.9471 21.1196 33.0088 21.061 33.0088H21C20.9391 32.9471 20.9391 32.8877 20.9391 32.826L21.1196 31.3062L19.9196 30.4562C19.8586 30.3944 19.8586 30.3351 19.8586 30.2733C19.8586 30.2116 19.9196 30.1522 19.9782 30.1522L21.4172 29.8483L21.9 28.509C21.9 28.4473 21.9609 28.3879 22.0195 28.3879C22.0805 28.3879 22.1391 28.3879 22.2 28.4497L22.9195 29.7865L24.4195 29.7248C24.4805 29.7248 24.5391 29.7865 24.5391 29.8459C24.5391 29.9076 24.5391 29.967 24.4805 30.0287ZM24.4195 10.2102L22.9195 10.1484L22.2 11.4853C22.2 11.5471 22.1391 11.5471 22.0805 11.5471C22.0195 11.5471 21.9609 11.4853 21.9609 11.426L21.5414 9.96798L20.1024 9.66404C20.0414 9.66404 19.9828 9.6023 19.9828 9.54293C19.9828 9.48119 19.9828 9.42183 20.0438 9.36009L21.2438 8.51001L21.0633 6.99028C21.0633 6.92854 21.0633 6.86917 21.1242 6.80743C21.1852 6.7457 21.2438 6.80743 21.3047 6.80743L22.5047 7.71927L23.8242 7.04962H24.0047C24.0656 7.04962 24.0656 7.17072 24.0656 7.23246L23.5852 8.6311L24.6047 9.7258C24.6656 9.78754 24.6656 9.8469 24.6656 9.90864C24.5391 10.2102 24.4805 10.2102 24.4195 10.2102ZM30.6607 33.4335L29.1607 33.5546L28.5607 34.9533C28.5607 35.015 28.4998 35.0744 28.4412 35.0744C28.3803 35.0744 28.3217 35.0126 28.3217 34.9533L27.7217 33.5546L26.2217 33.4335C26.1607 33.4335 26.1021 33.3718 26.1021 33.3124C26.1021 33.2507 26.1021 33.1913 26.1631 33.1296L27.2998 32.156L26.9388 30.698C26.9388 30.6363 26.9388 30.5769 26.9998 30.5152C27.0607 30.4534 27.1193 30.4534 27.1802 30.5152L28.4412 31.3059L29.7022 30.5152C29.7631 30.4534 29.8217 30.4534 29.8826 30.5152C29.9436 30.5769 29.9436 30.6363 29.9436 30.698L29.6389 32.156L30.7779 33.1296C30.8389 33.1913 30.8389 33.2507 30.8389 33.3124C30.7803 33.3718 30.7193 33.4335 30.6607 33.4335ZM30.8389 6.86677L29.6998 7.84037L30.0608 9.29834C30.0608 9.36008 30.0608 9.41944 29.9998 9.48118C29.9389 9.54292 29.8803 9.54292 29.8194 9.48118L28.4998 8.69043L27.2389 9.48118H27.1779C27.117 9.48118 27.117 9.48118 27.0584 9.41944C26.9975 9.35771 26.9975 9.29834 26.9975 9.2366L27.3584 7.77863L26.2194 6.80503C26.1584 6.74329 26.1584 6.68392 26.1584 6.62219C26.1584 6.56045 26.2194 6.50108 26.278 6.50108L27.778 6.37998L28.378 4.98133C28.378 4.9196 28.4389 4.86023 28.4975 4.86023C28.5584 4.86023 28.617 4.92197 28.617 4.98133L29.217 6.37998L30.717 6.50108C30.778 6.50108 30.8366 6.56282 30.8366 6.62219C30.8998 6.74566 30.8389 6.8074 30.8389 6.86677ZM37.0195 30.515L35.8195 31.3651L35.9999 32.8848C35.9999 32.9466 35.9999 33.006 35.939 33.0677H35.8781C35.8171 33.0677 35.8171 33.0677 35.7585 33.006L34.5585 32.0941L33.1804 32.7638H32.9999C32.939 32.702 32.939 32.6427 32.939 32.5809L33.4194 31.1823L32.3999 30.0876C32.339 30.0259 32.339 29.9665 32.339 29.9047C32.339 29.843 32.3999 29.7836 32.4585 29.7836L33.9585 29.8454L34.678 28.5085C34.739 28.4468 34.7976 28.3874 34.8585 28.4468C34.9194 28.4468 34.978 28.5085 34.978 28.5679L35.3976 30.0258L36.8366 30.3298C36.8976 30.3298 36.9562 30.3915 36.9562 30.4509C37.0804 30.3939 37.0804 30.4533 37.0195 30.515ZM41.1608 27.5967L39.6608 27.4138L38.8218 28.6296C38.8218 28.6913 38.7609 28.6913 38.7023 28.6913H38.6413C38.5804 28.6913 38.5218 28.6296 38.5218 28.5702L38.2218 27.1123L36.8999 26.6848C36.839 26.6848 36.7804 26.6231 36.7804 26.5637C36.7804 26.502 36.7804 26.4426 36.8413 26.3809L38.1609 25.6519L38.0999 24.1322C38.0999 24.0704 38.1609 24.0111 38.2195 24.0111H38.3999L39.4804 25.044L40.8609 24.5572C40.9218 24.5572 40.9804 24.5572 41.0414 24.619C41.1023 24.6807 41.1023 24.7401 41.0414 24.8018L40.3804 26.1387L41.2804 27.3545C41.3413 27.4162 41.3413 27.4756 41.2804 27.5373C41.339 27.5967 41.2194 27.6584 41.1608 27.5967ZM43.2608 20.181L41.8804 20.7889L41.7608 22.3086C41.7608 22.3703 41.6999 22.4297 41.6413 22.4297H41.5804C41.5194 22.4297 41.5194 22.4297 41.4608 22.368L40.4999 21.2139L39.0608 21.5796C38.9999 21.5796 38.9413 21.5796 38.8804 21.5179C38.8194 21.4561 38.8194 21.3968 38.8804 21.335L39.6608 20.0575L38.8804 18.7799C38.8194 18.7182 38.8194 18.6588 38.8804 18.5971C38.9413 18.5354 38.9999 18.5354 39.0608 18.5354L40.4999 18.901L41.4608 17.747C41.5218 17.6853 41.5804 17.6853 41.6413 17.6853C41.7022 17.6853 41.7608 17.747 41.7608 17.8064L41.8804 19.3261L43.2608 19.934C43.3218 19.934 43.3804 19.9958 43.3804 20.0551C43.3194 20.0599 43.3194 20.1192 43.2608 20.181Z" fill="#fff"/>
</svg>
