<svg xmlns="http://www.w3.org/2000/svg" width="456.27" height="77.12" viewBox="0 0 456.27 77.12">
  <defs>
    <style>
      .cls-1 {
        fill: #0d6efd;
      }

      .cls-2, .cls-3 {
        fill: #fff;
      }

      .cls-2 {
        opacity: 0.18;
      }
    </style>
  </defs>
  <g id="Layer_1" data-name="Layer 1">
    <g>
      <circle class="cls-1" cx="38.56" cy="38.56" r="38.56"/>
      <path class="cls-2" d="M9,48.08a44.19,44.19,0,0,0,4.68,19.84A38.56,38.56,0,1,0,55.16,3.72c-.59,0-1.19-.05-1.79-.05A44.4,44.4,0,0,0,9,48.08Z"/>
      <path class="cls-3" d="M54,20.52H13.64a.85.85,0,0,0-.84.85v34a.84.84,0,0,0,.84.84H30a.84.84,0,0,0,.85-.84V51.16a.85.85,0,0,0-.85-.85H20.07a.85.85,0,0,1-.85-.85V42a.85.85,0,0,1,.85-.84h8.66a.85.85,0,0,0,.85-.85V36.06a.85.85,0,0,0-.85-.85H20.07a.85.85,0,0,1-.85-.84V27.29a.85.85,0,0,1,.85-.85H38.26a.85.85,0,0,1,.85.85V55.38a.84.84,0,0,0,.85.84h4.73a.84.84,0,0,0,.85-.84V27.29a.85.85,0,0,1,.84-.85H61.27a.85.85,0,0,1,.84.85V55.38a.84.84,0,0,0,.85.84h4.73a.84.84,0,0,0,.85-.84V27.29a.85.85,0,0,1,.85-.85h6.77a.84.84,0,0,0,.84-.85V21.37a.84.84,0,0,0-.84-.85Z"/>
    </g>
  </g>
  <g id="Layer_2" data-name="Layer 2">
    <g>
      <path class="cls-1" d="M103.54,22.11H120v5.45H109.46v8.09H119V41.1h-9.54v8.46h10.72V55H103.54Z"/>
      <path class="cls-1" d="M141.23,55H123.75V22.11h5.92V49.56h11.56Z"/>
      <path class="cls-1" d="M144.2,22.11h5.92V55H144.2Z"/>
      <path class="cls-1" d="M161.07,38.28l-7.29-16.17h7.15l3.8,9.4.9,3.57.84-3.57,4-9.4h6.39L169.34,38,177.24,55h-6.91L165.91,44.9l-1-3.66L164,44.9,159.56,55H153Z"/>
      <path class="cls-1" d="M180.2,22.11h5.92V55H180.2Z"/>
      <path class="cls-1" d="M190.87,22.44a31.23,31.23,0,0,1,4.13-.61c1.47-.13,2.74-.19,3.81-.19a19.18,19.18,0,0,1,3.95.4,8.83,8.83,0,0,1,3.4,1.46,7.7,7.7,0,0,1,2.4,2.86,10.16,10.16,0,0,1,.92,4.59,12.74,12.74,0,0,1-1.48,6.5,7.67,7.67,0,0,1-4.07,3.46l1.88,1.5L211.88,55h-6.82l-5.73-13-2.54-.61V55h-5.92Zm5.92,14.94h2a4.14,4.14,0,0,0,3.34-1.33,6.4,6.4,0,0,0,1.12-4.16,5.87,5.87,0,0,0-.94-3.46,3.36,3.36,0,0,0-3-1.34c-.5,0-1,0-1.45.05a4.32,4.32,0,0,0-1.13.19Z"/>
      <path class="cls-1" d="M242.52,27.56h-7.8V55h-5.93V27.56H221V22.11h21.53Z"/>
      <path class="cls-1" d="M239.13,43.26q0-6.25,2.45-9.31a8.25,8.25,0,0,1,6.81-3.05c3.14,0,5.47,1,7,3.1s2.3,5.15,2.3,9.26-.82,7.31-2.44,9.33a8.33,8.33,0,0,1-6.87,3Q239.14,55.62,239.13,43.26Zm5.79,0a14.77,14.77,0,0,0,.79,5.45,2.76,2.76,0,0,0,2.68,1.93A2.84,2.84,0,0,0,251.05,49a13.37,13.37,0,0,0,.87-5.71,14.72,14.72,0,0,0-.8-5.5,2.78,2.78,0,0,0-2.73-1.88,2.83,2.83,0,0,0-2.56,1.67C245.22,38.66,244.92,40.57,244.92,43.26Z"/>
      <path class="cls-1" d="M260.05,43.26q0-6.25,2.44-9.31a8.26,8.26,0,0,1,6.82-3.05c3.13,0,5.47,1,7,3.1s2.31,5.15,2.31,9.26-.82,7.31-2.45,9.33a8.32,8.32,0,0,1-6.86,3Q260.05,55.62,260.05,43.26Zm5.78,0a14.74,14.74,0,0,0,.8,5.45,2.75,2.75,0,0,0,2.68,1.93A2.82,2.82,0,0,0,272,49a13.37,13.37,0,0,0,.87-5.71,14.75,14.75,0,0,0-.79-5.5,2.86,2.86,0,0,0-5.29-.21C266.14,38.66,265.83,40.57,265.83,43.26Z"/>
      <path class="cls-1" d="M287.5,47.4a6,6,0,0,0,.33,2.35,1.11,1.11,0,0,0,1.08.7,4.43,4.43,0,0,0,.87-.09,6.18,6.18,0,0,0,1-.33l.51,4.51a6.36,6.36,0,0,1-1.92.7,11.79,11.79,0,0,1-2.77.33,4.8,4.8,0,0,1-3.53-1.17c-.78-.78-1.17-2.12-1.17-4V22.11h5.59Z"/>
      <path class="cls-1" d="M300.14,45.28h-1.31V55h-5.6V22.11h5.6V41.52l1.12-.66,3.9-9.35h6.07l-4.33,9.31-2,1.59,2.21,1.6,4.8,11h-6.3Z"/>
      <path class="cls-1" d="M312.41,24.88a3.2,3.2,0,0,1,.89-2.32,3.39,3.39,0,0,1,2.54-.92,3.81,3.81,0,0,1,2.63.89,3,3,0,0,1,1,2.35,2.9,2.9,0,0,1-1,2.31,3.93,3.93,0,0,1-2.63.84,3.49,3.49,0,0,1-2.54-.87A3.06,3.06,0,0,1,312.41,24.88Zm.66,6.63h5.59V55h-5.59Z"/>
      <path class="cls-1" d="M321.34,31.51h2.58V27.09l5.59-1.74v6.16h4.56v5h-4.56V46.74a7.46,7.46,0,0,0,.4,2.87,1.46,1.46,0,0,0,1.44.84,5.49,5.49,0,0,0,1.27-.14,8.89,8.89,0,0,0,1.22-.42l.7,4.46a11.69,11.69,0,0,1-2.39.87,11.23,11.23,0,0,1-2.87.35,5,5,0,0,1-4-1.55q-1.33-1.55-1.34-5.21V36.49h-2.58Z"/>
      <path class="cls-1" d="M365,27.56h-7.8V55h-5.92V27.56h-7.8V22.11H365Z"/>
      <path class="cls-1" d="M379,55V40.82a8.46,8.46,0,0,0-.58-3.67A2.2,2.2,0,0,0,376.28,36a3.15,3.15,0,0,0-2.07.8,3.92,3.92,0,0,0-1.27,2V55h-5.59V22.11h5.59V33.62h.14a7.56,7.56,0,0,1,2.28-2,6.84,6.84,0,0,1,3.36-.75,7,7,0,0,1,2.54.42,4.17,4.17,0,0,1,1.83,1.41,6.82,6.82,0,0,1,1.13,2.66,19.54,19.54,0,0,1,.38,4.2V55Z"/>
      <path class="cls-1" d="M404.34,53.27a9.08,9.08,0,0,1-3.2,1.69,13.56,13.56,0,0,1-4.23.66,9.51,9.51,0,0,1-4.2-.85,7.37,7.37,0,0,1-2.9-2.44,11.08,11.08,0,0,1-1.66-3.88,22.61,22.61,0,0,1-.54-5.19c0-4.23.83-7.36,2.51-9.38a8.58,8.58,0,0,1,7-3,9.51,9.51,0,0,1,2.91.45,6.51,6.51,0,0,1,2.52,1.5,7.75,7.75,0,0,1,1.78,2.82,12.32,12.32,0,0,1,.69,4.44,21.76,21.76,0,0,1-.12,2.21c-.08.79-.2,1.63-.36,2.54H393a8,8,0,0,0,1.23,4.47,4.25,4.25,0,0,0,3.66,1.55,8,8,0,0,0,2.78-.47,7.84,7.84,0,0,0,1.92-1ZM397,35.65a3,3,0,0,0-2.71,1.43,8.28,8.28,0,0,0-1.05,4h6.58a8.32,8.32,0,0,0-.57-4.07A2.38,2.38,0,0,0,397,35.65Z"/>
      <path class="cls-1" d="M419.42,55V41.33a12.1,12.1,0,0,0-.47-4.11,1.78,1.78,0,0,0-1.83-1.15,2.52,2.52,0,0,0-1.86.73,4.74,4.74,0,0,0-1.1,1.76V55h-5.59V31.51h4.32l.71,2.82h.14A8.21,8.21,0,0,1,416,31.91a6,6,0,0,1,3.55-1,5.14,5.14,0,0,1,3,.79,5.34,5.34,0,0,1,1.81,2.83,7.09,7.09,0,0,1,2.35-2.66,6.1,6.1,0,0,1,3.43-1,7.76,7.76,0,0,1,2.66.4,3.56,3.56,0,0,1,1.78,1.38,6.9,6.9,0,0,1,1,2.7,23.77,23.77,0,0,1,.33,4.35V55h-5.59V40.72a10.81,10.81,0,0,0-.42-3.52A1.78,1.78,0,0,0,428,36.07a2.7,2.7,0,0,0-1.91.68A3.92,3.92,0,0,0,425,38.61V55Z"/>
      <path class="cls-1" d="M455.61,53.27A9,9,0,0,1,452.42,55a13.56,13.56,0,0,1-4.23.66,9.58,9.58,0,0,1-4.21-.85,7.34,7.34,0,0,1-2.89-2.44,11.09,11.09,0,0,1-1.67-3.88,22.61,22.61,0,0,1-.54-5.19q0-6.34,2.52-9.38a8.56,8.56,0,0,1,7-3,9.51,9.51,0,0,1,2.91.45,6.4,6.4,0,0,1,2.51,1.5,7.64,7.64,0,0,1,1.79,2.82,12.56,12.56,0,0,1,.68,4.44,21.76,21.76,0,0,1-.12,2.21c-.08.79-.19,1.63-.35,2.54H444.29a7.92,7.92,0,0,0,1.23,4.47,4.25,4.25,0,0,0,3.66,1.55,8.17,8.17,0,0,0,4.7-1.46Zm-7.37-17.62a3,3,0,0,0-2.72,1.43,8.51,8.51,0,0,0-1,4h6.58a8.09,8.09,0,0,0-.57-4.07A2.35,2.35,0,0,0,448.24,35.65Z"/>
    </g>
  </g>
</svg>
