<?xml version="1.0" standalone="no"?>
<!DOCTYPE svg PUBLIC "-//W3C//DTD SVG 20010904//EN"
 "http://www.w3.org/TR/2001/REC-SVG-20010904/DTD/svg10.dtd">
<svg version="1.0" xmlns="http://www.w3.org/2000/svg"
 width="700.000000pt" height="700.000000pt" viewBox="0 0 700.000000 700.000000"
 preserveAspectRatio="xMidYMid meet">
<metadata>
Created by potrace 1.14, written by Peter Selinger 2001-2017
</metadata>
<g transform="translate(0.000000,700.000000) scale(0.100000,-0.100000)"
fill="#000000" stroke="none">
<path d="M3310 6990 c-846 -46 -1636 -391 -2244 -980 -592 -573 -956 -1320
-1048 -2145 -17 -152 -16 -584 0 -730 75 -644 301 -1218 674 -1717 594 -793
1479 -1294 2461 -1393 l67 -7 0 2611 0 2611 -245 0 -245 0 0 220 0 220 730 0
730 0 0 -220 0 -220 -225 0 -225 0 0 -2615 0 -2615 38 5 c20 2 78 9 127 15
295 35 684 135 913 236 l52 23 0 2475 0 2476 -242 2 -243 3 0 215 0 215 923 3
923 2 -63 77 c-88 107 -294 313 -410 410 -487 406 -1064 675 -1668 777 -252
43 -537 59 -780 46z m-790 -1530 l0 -220 -400 0 -400 0 0 -755 0 -755 380 0
380 0 0 -220 0 -220 -380 0 -380 0 0 -810 0 -810 405 0 405 0 0 -215 0 -215
-665 0 -665 0 0 2220 0 2220 660 0 660 0 0 -220z"/>
<path d="M5400 2904 c0 -1865 3 -2334 13 -2328 218 127 588 457 790 705 428
526 687 1133 773 1814 22 172 25 594 6 760 -32 272 -89 525 -172 769 -57 167
-159 403 -228 526 l-48 85 -567 3 -567 2 0 -2336z"/>
</g>
</svg>
