<?xml version="1.0" standalone="no"?>
<!DOCTYPE svg PUBLIC "-//W3C//DTD SVG 20010904//EN"
 "http://www.w3.org/TR/2001/REC-SVG-20010904/DTD/svg10.dtd">
<svg version="1.0" xmlns="http://www.w3.org/2000/svg"
 width="700.000000pt" height="700.000000pt" viewBox="0 0 700.000000 700.000000"
 preserveAspectRatio="xMidYMid meet">
<metadata>
Created by potrace 1.14, written by Peter Selinger 2001-2017
</metadata>
<g transform="translate(0.000000,700.000000) scale(0.100000,-0.100000)"
fill="#000000" stroke="none">
<path d="M3270 6994 c-432 -38 -776 -119 -1123 -265 -1015 -427 -1773 -1308
-2041 -2374 -73 -289 -101 -529 -101 -855 0 -333 28 -566 106 -874 269 -1067
1059 -1965 2089 -2376 922 -368 1976 -323 2861 120 956 480 1649 1386 1859
2430 54 267 64 378 64 700 0 223 -4 327 -17 425 -24 175 -68 394 -111 543 -20
68 -36 125 -36 128 0 2 -123 4 -274 4 -261 0 -274 -1 -300 -21 l-26 -20 -2
-1310 -3 -1311 -24 -19 c-21 -18 -42 -19 -271 -19 l-249 0 -20 26 -21 27 0
1299 0 1299 -25 24 -24 25 -701 0 -701 0 -24 -25 -25 -24 0 -1299 0 -1299 -21
-27 -20 -26 -248 0 c-198 0 -251 3 -267 14 -19 14 -19 42 -24 1326 l-5 1312
-28 24 -28 24 -839 0 c-617 0 -846 -3 -865 -12 -42 -19 -46 -57 -43 -409 3
-305 4 -328 22 -348 19 -21 25 -21 426 -21 419 0 460 -3 480 -40 6 -11 10
-114 10 -238 0 -201 -2 -222 -19 -243 l-19 -24 -431 -5 c-396 -5 -432 -6 -448
-23 -17 -16 -18 -46 -18 -387 l0 -369 23 -23 23 -23 484 -3 484 -3 21 -26 c19
-24 20 -39 20 -240 0 -214 0 -214 -25 -238 l-24 -25 -775 0 -775 0 -20 26 -21
27 0 1566 c1 1215 3 1570 13 1582 7 9 22 21 34 27 16 9 682 12 2697 12 1472 0
2676 2 2676 5 0 13 -99 178 -176 295 -427 646 -1089 1149 -1827 1389 -346 112
-638 160 -1022 165 -132 2 -260 2 -285 0z"/>
</g>
</svg>
