<?xml version="1.0" standalone="no"?>
<!DOCTYPE svg PUBLIC "-//W3C//DTD SVG 20010904//EN"
 "http://www.w3.org/TR/2001/REC-SVG-20010904/DTD/svg10.dtd">
<svg version="1.0" xmlns="http://www.w3.org/2000/svg"
 width="1628.000000pt" height="534.000000pt" viewBox="0 0 1628.000000 534.000000"
 preserveAspectRatio="xMidYMid meet">

<g transform="translate(0.000000,534.000000) scale(0.100000,-0.100000)"
fill="#000000" stroke="none">
<path d="M13150 5327 c-92 -26 -153 -80 -196 -172 l-24 -50 0 -622 c0 -343 -3
-623 -6 -623 -3 0 -24 13 -47 29 -128 87 -318 168 -490 209 -101 24 -132 26
-307 27 -216 0 -295 -11 -461 -66 -377 -125 -673 -383 -856 -748 l-53 -104
-28 64 c-163 360 -476 646 -860 783 -256 91 -614 100 -885 21 -396 -114 -745
-411 -917 -778 l-41 -88 -45 93 c-216 444 -622 742 -1108 814 -145 22 -390 14
-521 -16 -291 -66 -516 -191 -730 -405 -132 -131 -214 -245 -281 -389 -21 -47
-41 -85 -44 -86 -3 0 -23 37 -45 83 -179 371 -517 657 -912 772 -273 79 -629
71 -885 -21 -161 -58 -359 -172 -485 -280 l-43 -37 0 51 c0 113 -73 228 -178
279 l-57 28 -1175 0 -1175 0 -46 -21 c-114 -53 -189 -166 -189 -285 0 -36 7
-86 16 -112 20 -60 93 -141 158 -175 l51 -27 904 -5 903 -5 -1017 -1370 c-560
-753 -1027 -1390 -1039 -1415 -19 -41 -21 -63 -21 -230 0 -182 0 -186 27 -236
15 -28 49 -71 76 -96 94 -84 -3 -78 1378 -78 1200 0 1224 0 1277 20 29 11 72
36 95 55 43 37 102 142 102 182 0 12 2 23 5 23 3 0 44 -26 93 -59 163 -110
331 -181 525 -223 85 -18 134 -22 297 -22 163 0 212 4 297 22 379 82 700 301
916 626 l46 69 3 -249 c3 -283 8 -304 88 -384 121 -121 312 -119 436 4 92 92
89 71 89 736 l0 575 -415 0 c-384 0 -419 -1 -464 -19 -83 -32 -132 -86 -191
-212 -68 -144 -113 -214 -194 -298 -105 -109 -246 -193 -386 -232 -81 -22
-289 -30 -379 -14 -329 58 -597 313 -676 643 -16 66 -20 118 -20 269 l0 188
1363 2 1362 3 6 545 c4 484 7 552 23 605 102 343 383 579 731 614 295 30 580
-89 752 -314 67 -88 136 -226 165 -330 l22 -80 6 -1280 c6 -1427 -1 -1310 76
-1395 21 -23 61 -54 88 -68 44 -23 64 -27 136 -27 102 0 152 20 223 92 79 79
87 113 88 391 0 187 3 233 12 218 232 -365 570 -600 983 -683 134 -27 424 -24
560 5 148 32 244 66 384 138 157 81 270 165 390 291 112 117 182 214 251 354
l51 102 40 -84 c66 -141 161 -274 282 -394 215 -213 477 -355 763 -412 135
-27 434 -24 570 5 287 62 539 197 738 397 118 118 203 235 280 385 l56 109 52
-102 c214 -419 566 -691 1020 -789 147 -32 437 -32 584 0 278 60 527 192 731
386 210 201 348 451 414 749 23 101 23 109 23 892 0 721 -2 798 -18 878 -127
626 -634 1099 -1261 1177 -133 17 -371 7 -491 -20 -275 -62 -509 -187 -709
-381 -153 -146 -252 -292 -333 -486 -26 -61 -48 -111 -49 -110 -6 7 19 235 32
302 18 89 64 222 88 257 14 20 16 99 16 713 0 785 4 747 -81 839 -79 87 -201
124 -309 93z m-9060 -1838 c244 -56 443 -220 560 -464 72 -149 81 -195 87
-447 l6 -218 -853 0 -852 0 5 238 c5 269 11 302 83 447 177 359 561 536 964
444z m5458 0 c252 -58 443 -215 566 -467 83 -171 81 -150 81 -962 0 -711 0
-715 -23 -795 -72 -256 -234 -451 -465 -560 -108 -52 -177 -67 -323 -72 -147
-6 -239 8 -352 53 -256 103 -461 348 -517 619 -21 105 -22 1434 -1 1535 36
170 113 310 241 435 209 206 493 283 793 214z m2737 0 c298 -72 530 -302 617
-614 22 -79 23 -85 23 -790 0 -798 1 -789 -75 -951 -122 -263 -329 -433 -600
-490 -87 -18 -263 -18 -358 2 -311 63 -568 315 -643 629 -19 82 -20 113 -17
822 l3 738 29 83 c154 442 577 678 1021 571z m2725 0 c239 -54 438 -217 556
-454 87 -177 85 -149 82 -996 l-3 -744 -24 -70 c-98 -293 -327 -507 -616 -576
-76 -18 -111 -20 -230 -17 -124 4 -151 8 -235 37 -278 93 -487 321 -561 609
-18 71 -19 118 -19 788 0 782 0 784 61 929 161 389 565 590 989 494z m-12585
-1411 c0 -717 2 -791 18 -873 32 -159 102 -340 186 -482 l31 -53 -931 0 -931
0 29 38 c15 21 381 514 813 1095 432 581 785 1057 785 1057 0 0 0 -352 0 -782z"/>
</g>
</svg>
